<?xml version="1.0" encoding="UTF-8"?>
<svg width="1140px" height="1140px" viewBox="0 0 1140 1140" version="1.1" xmlns="http://www.w3.org/2000/svg" xmlns:xlink="http://www.w3.org/1999/xlink">
    <!-- Generator: Sketch 55.1 (78136) - https://sketchapp.com -->
    <title>add</title>
    <desc>Created with Sketch.</desc>
    <g id="add" stroke="none" stroke-width="1" fill="none" fill-rule="evenodd">
        <path d="M409.578241,1114.29352 C409.174537,1113.99074 408.871759,1023.56111 408.871759,913.450926 L408.871759,713.314815 L366.281019,713.314815 C342.765278,713.314815 275.649537,712.810185 217.011574,712.305556 C158.373611,711.800926 87.0189815,711.296296 58.4569444,711.296296 L6.37916667,711.094444 L5.77361111,620.160185 C5.47083333,570.100926 5.06712963,497.636111 4.86527778,459.183333 L4.46157407,389.140741 L207.120833,389.948148 L409.881019,390.65463 L409.881019,208.483333 L409.881019,26.312037 L476.693981,25.7064815 C513.431019,25.3027778 586.097685,25 638.175463,25 L732.843981,25 L732.843981,207.171296 L732.843981,389.342593 L787.14213,389.342593 C817.016204,389.342593 907.647685,389.64537 988.489352,390.049074 L1135.53843,390.65463 L1135.53843,552.035185 L1135.53843,713.314815 L934.191204,713.314815 L732.843981,713.314815 L732.843981,914.157407 L732.843981,1115 L571.564352,1115 C482.850463,1115 409.881019,1114.69722 409.578241,1114.29352 Z" id="Path" fill="#FFFFFF" fill-rule="nonzero"></path>
    </g>
</svg>